<svg id="eWsoOTDxFIr1" xmlns="http://www.w3.org/2000/svg" xmlns:xlink="http://www.w3.org/1999/xlink" viewBox="0 0 300 300" shape-rendering="geometricPrecision" text-rendering="geometricPrecision">
<style><![CDATA[
#eWsoOTDxFIr4_to {animation: eWsoOTDxFIr4_to__to 3000ms linear infinite normal forwards}@keyframes eWsoOTDxFIr4_to__to { 0% {transform: translate(88.429634px,125.717866px);animation-timing-function: cubic-bezier(0.47,0,0.745,0.715)} 33.333333% {transform: translate(80.856711px,134.710713px)} 66.666667% {transform: translate(80.856711px,134.710713px);animation-timing-function: cubic-bezier(0.39,0.575,0.565,1)} 100% {transform: translate(88.429634px,125.717866px)}} #eWsoOTDxFIr4_tr {animation: eWsoOTDxFIr4_tr__tr 3000ms linear infinite normal forwards}@keyframes eWsoOTDxFIr4_tr__tr { 0% {transform: rotate(-34.153047deg);animation-timing-function: cubic-bezier(0.47,0,0.745,0.715)} 33.333333% {transform: rotate(-56.844645deg)} 66.666667% {transform: rotate(-56.844645deg);animation-timing-function: cubic-bezier(0.39,0.575,0.565,1)} 100% {transform: rotate(-34.153047deg)}} #eWsoOTDxFIr7_to {animation: eWsoOTDxFIr7_to__to 3000ms linear infinite normal forwards}@keyframes eWsoOTDxFIr7_to__to { 0% {transform: translate(158.895473px,107.624222px);animation-timing-function: cubic-bezier(0.47,0,0.745,0.715)} 33.333333% {transform: translate(170.308179px,118.323632px)} 66.666667% {transform: translate(170.308179px,118.323632px);animation-timing-function: cubic-bezier(0.445,0.05,0.55,0.95)} 100% {transform: translate(158.895473px,107.624222px)}} #eWsoOTDxFIr7_tr {animation: eWsoOTDxFIr7_tr__tr 3000ms linear infinite normal forwards}@keyframes eWsoOTDxFIr7_tr__tr { 0% {transform: rotate(31.710381deg);animation-timing-function: cubic-bezier(0.47,0,0.745,0.715)} 33.333333% {transform: rotate(50.289003deg)} 66.666667% {transform: rotate(50.289003deg);animation-timing-function: cubic-bezier(0.445,0.05,0.55,0.95)} 100% {transform: rotate(31.710381deg)}} #eWsoOTDxFIr23_tr {animation: eWsoOTDxFIr23_tr__tr 3000ms linear infinite normal forwards}@keyframes eWsoOTDxFIr23_tr__tr { 0% {transform: translate(252.76282px,222.039048px) rotate(0deg);animation-timing-function: cubic-bezier(0.47,0,0.745,0.715)} 33.333333% {transform: translate(252.76282px,222.039048px) rotate(-5.483906deg)} 66.666667% {transform: translate(252.76282px,222.039048px) rotate(-5.483906deg);animation-timing-function: cubic-bezier(0.39,0.575,0.565,1)} 100% {transform: translate(252.76282px,222.039048px) rotate(0deg)}}
]]></style>
<path d="M-78.679889,0c0-27.128555,21.31593-50.859376,64.769633-50.859376-3.7393,2.581716,16.000254-18.542677,48.251203-14.779648s44.338942,45.202014,44.338942,65.639024c0,27.128555-37.399663,24.777644-80.853366,24.777644s-76.506412,2.350911-76.506412-24.777644Z" transform="translate(174.792606 213.66022)" fill="#a7723e" stroke-width="0"/><path d="M-47.569268,0c-2.257918-27.597272,18.470758-42.927129,47.802197-43.949469s48.318845,16.113859,47.336339,43.949469-21.297487,45.056683-47.569268,45.056683-47.569268-20.172564-47.569268-45.056683Z" transform="matrix(1.046641 0 0 0.871027 119.882875 150.025573)" fill="#a6733e" stroke-width="0"/><g id="eWsoOTDxFIr4_to" transform="translate(88.429634,125.717866)"><g id="eWsoOTDxFIr4_tr" transform="rotate(-34.153047)"><g transform="scale(-1,1) translate(-19.804277,-111.747054)"><path d="M-3.229973,14.259065l-20.125-.000003L-3.354972,-22.62941" transform="translate(23.354973 97.284064)" fill="#4a3927" stroke-width="0"/><path d="M-3.229973,14.259065l-20.125-.000003L-3.354972,-22.62941" transform="matrix(-1 0 0 1 16.455706 97.284064)" fill="#a27e58" stroke-width="0"/></g></g></g><g id="eWsoOTDxFIr7_to" transform="translate(158.895473,107.624222)"><g id="eWsoOTDxFIr7_tr" transform="rotate(31.710381)"><g transform="translate(-19.90534,-93.098896)"><path d="M-3.229973,14.259065l-20.125-.000003L-3.354972,-22.62941" transform="translate(23.354973 97.284064)" fill="#4a3927" stroke-width="0"/><path d="M-3.229973,14.259065l-20.125-.000003L-3.354972,-22.62941" transform="matrix(-1 0 0 1 16.455706 97.284064)" fill="#a27e58" stroke-width="0"/></g></g></g><g transform="translate(3 0)"><ellipse rx="15.85003" ry="15.85003" transform="matrix(.769235 0 0 0.769235 96.966318 137.386038)" fill="#606344" stroke-width="0"/><ellipse rx="9.591301" ry="9.591301" transform="translate(96.885037 136.979627)" stroke-width="0"/></g><g transform="translate(37.332555-.369168)"><ellipse rx="15.85003" ry="15.85003" transform="matrix(.769235 0 0 0.769235 96.966318 137.386038)" fill="#606344" stroke-width="0"/><ellipse rx="9.591301" ry="9.591301" transform="translate(96.885037 136.979627)" stroke-width="0"/></g><g><path d="M1.697028,-5.232502c3.769204-1.041939,6.246293,4.486483,5.987927,9.669412l-6,.000002" transform="matrix(-.99999-.004453 0.001976-.44379 119.769769 162.343062)" fill="#745445" stroke-width="0"/><path d="M1.697028,-5.232502c3.769204-1.041939,6.246293,4.486483,5.987927,9.669412l-6,.000002" transform="matrix(.99999 0.004453 0.001976-.44379 116.038402 162.334427)" fill="#745445" stroke-width="0"/></g><g transform="translate(3.000001 0.000001)"><path d="M-2.071874,-7.464513c-.786445,8.477719-3.253474,6.46278-4,2.180929" transform="translate(116.790761 172.114581)" fill="none" stroke="#754818" stroke-miterlimit="1"/><path d="M-2.071874,-7.464513c-.786445,8.477719-3.253474,6.46278-4,2.180929" transform="matrix(-1 0 0 1 112.790761 172.114581)" fill="none" stroke="#754818" stroke-miterlimit="1"/></g><path d="M23.635564,-5.469386c-34.599015-1.660113-28.787236,27.562084-25.393582,34.769672" transform="translate(203.461267 201.652899)" fill="none" stroke="#9c5000" stroke-width="3"/><g id="eWsoOTDxFIr23_tr" transform="translate(252.76282,222.039048) rotate(0)"><path d="M-64.851301,0.781341C-7.013366,7.701536,56.157181,-5.950395,57.428562,-23.440228" transform="translate(-55.966276,23.931626)" fill="none" stroke="#a6733e" stroke-width="15" stroke-linecap="round" stroke-linejoin="round"/></g></svg>
